<svg width="21" height="20" viewBox="0 0 21 20" fill="none" xmlns="http://www.w3.org/2000/svg">
<path d="M16.085 7.02301L11.871 10.434C11.4848 10.7394 11.0068 10.9055 10.5145 10.9055C10.0221 10.9055 9.54418 10.7394 9.15798 10.434L4.90698 7.02301" stroke="#717B8A" stroke-width="1.5" stroke-miterlimit="10" stroke-linecap="round" stroke-linejoin="round"/>
<path d="M5.829 1.5H15.144C15.8101 1.50819 16.4674 1.65249 17.0757 1.92403C17.6839 2.19557 18.2302 2.58861 18.681 3.079C19.135 3.57297 19.485 4.15326 19.71 4.78531C19.9351 5.41737 20.0306 6.08825 19.991 6.758V13.242C20.0306 13.9118 19.9351 14.5826 19.71 15.2147C19.485 15.8467 19.135 16.427 18.681 16.921C18.2302 17.4114 17.6839 17.8044 17.0757 18.076C16.4674 18.3475 15.8101 18.4918 15.144 18.5H5.829C2.944 18.5 1 16.141 1 13.242V6.758C1 3.859 2.944 1.5 5.829 1.5Z" stroke="#717B8A" stroke-width="1.5" stroke-miterlimit="10" stroke-linecap="round" stroke-linejoin="round"/>
</svg>
