<svg xmlns="http://www.w3.org/2000/svg" viewBox="0 0 512.001 364"><g transform="translate(-237 -225)"><g transform="translate(237 201.728)"><path d="M488.727,325.818H23.273A23.342,23.342,0,0,1,0,302.545v-256A23.342,23.342,0,0,1,23.273,23.272H488.728A23.342,23.342,0,0,1,512,46.545v256A23.343,23.343,0,0,1,488.727,325.818Z" fill="#0e9347"/><path d="M442.182,302.545H69.818A46.682,46.682,0,0,0,23.273,256V93.091A46.682,46.682,0,0,0,69.818,46.546H442.182a46.682,46.682,0,0,0,46.545,46.545V256A46.682,46.682,0,0,0,442.182,302.545Z" fill="#3bb54a"/><ellipse cx="93.091" cy="104.727" rx="93.091" ry="104.727" transform="translate(162.909 69.818)" fill="#0e9347"/><circle cx="23.273" cy="23.273" r="23.273" transform="translate(93.091 151.272)" fill="#0e9347"/><circle cx="23.273" cy="23.273" r="23.273" transform="translate(372.363 151.272)" fill="#0e9347"/><path d="M267.636,162.909H244.363c-6.982,0-11.636-4.655-11.636-11.636s4.655-11.636,11.636-11.636h34.909c6.982,0,11.636-4.655,11.636-11.636s-4.655-11.636-11.636-11.636H267.636c0-6.982-4.655-11.636-11.636-11.636s-11.636,4.655-11.636,11.636c-19.782,0-34.909,15.127-34.909,34.909s15.127,34.909,34.909,34.909h23.273c6.982,0,11.636,4.655,11.636,11.636s-4.655,11.636-11.636,11.636H232.728c-6.982,0-11.636,4.655-11.636,11.636s4.655,11.636,11.636,11.636h11.636c0,6.982,4.655,11.636,11.636,11.636s11.636-4.655,11.636-11.636c19.782,0,34.909-15.127,34.909-34.909S287.418,162.909,267.636,162.909Z" fill="#89c763"/><text transform="translate(5 377.272)" fill="#ffffff" font-size="52" font-family="GoodTimesRg-Bold, Good Times"><tspan x="0" y="0">Loadup today</tspan></text></g></g></svg>